<svg id="Camada_1" data-name="Camada 1" xmlns="http://www.w3.org/2000/svg" width="16" height="16" viewBox="0 0 16 16"><defs><style>.cls-1{fill:#fff;}</style></defs><title>Prancheta 1</title><path class="cls-1" d="M4.6,3.41a.84.84,0,0,0-.84.84V15.16a.84.84,0,0,0,1.68,0V4.25a.83.83,0,0,0-.84-.84"/><path class="cls-1" d="M14.85,0H11.4a.85.85,0,0,0-.85.84v10.9a.86.86,0,0,0,.86.86.84.84,0,0,0,.83-.84V1.68H14V11.76a2.56,2.56,0,0,1-2.41,2.55,2.55,2.55,0,0,1-1.95-.74,2.58,2.58,0,0,1-.75-1.81v-.08h0V4.14h0a4.08,4.08,0,0,0-.35-1.58A4.24,4.24,0,0,0,6.24.35,4.24,4.24,0,0,0,3,.35a4.29,4.29,0,0,0-1.35.91A4.19,4.19,0,0,0,.7,2.6,4.56,4.56,0,0,0,.37,4.06V15.14a.85.85,0,0,0,.86.86.84.84,0,0,0,.82-.84V4.3h0a2.5,2.5,0,0,1,.63-1.71,2.54,2.54,0,0,1,2-.88,2.57,2.57,0,0,1,1.58.63,2.53,2.53,0,0,1,.87,1.88h0v7.46h0v.08a4.16,4.16,0,0,0,1.24,3,4.12,4.12,0,0,0,1.35.91,4.27,4.27,0,0,0,3.29,0,4.12,4.12,0,0,0,1.35-.91,4.24,4.24,0,0,0,.91-1.34,4.14,4.14,0,0,0,.33-1.47V.84A.84.84,0,0,0,14.85,0"/></svg>